<svg xmlns="http://www.w3.org/2000/svg" width="73.611" height="18.416" viewBox="0 0 73.611 18.416">
  <g id="logo_s" transform="translate(-19.144 -1673.4)">
    <path id="패스_309" data-name="패스 309" d="M19.144,1691.816V1673.4H31.768v3.115H22.862v4.359H30.55v3.116H22.862v7.826Z" fill="#008038"/>
    <path id="패스_310" data-name="패스 310" d="M34.846,1691.816V1673.4h7.826a13.422,13.422,0,0,1,4.29.5,4.235,4.235,0,0,1,2.141,1.765,5.305,5.305,0,0,1,.8,2.9,4.916,4.916,0,0,1-1.218,3.423,5.851,5.851,0,0,1-3.643,1.7,8.667,8.667,0,0,1,1.991,1.545,21.04,21.04,0,0,1,2.117,2.99l2.248,3.593H46.955l-2.688-4.008a26.076,26.076,0,0,0-1.959-2.707,2.865,2.865,0,0,0-1.118-.766,6.144,6.144,0,0,0-1.872-.207h-.754v7.688Zm3.718-10.628h2.751a14.2,14.2,0,0,0,3.342-.226,2,2,0,0,0,1.042-.779,2.39,2.39,0,0,0,.377-1.381,2.206,2.206,0,0,0-.5-1.5,2.282,2.282,0,0,0-1.4-.723q-.452-.063-2.713-.063h-2.9Z" fill="#008038"/>
    <path id="패스_311" data-name="패스 311" d="M53.412,1691.816V1673.4H67.067v3.115H57.13v4.083h9.246v3.1H57.13v5.012H67.418v3.1Z" fill="#008038"/>
    <path id="패스_312" data-name="패스 312" d="M70.559,1673.4h6.8a13.286,13.286,0,0,1,3.5.352,6.153,6.153,0,0,1,2.776,1.7,8.04,8.04,0,0,1,1.759,2.983,13.594,13.594,0,0,1,.6,4.353,12.1,12.1,0,0,1-.565,3.919,8.124,8.124,0,0,1-1.972,3.253,6.545,6.545,0,0,1-2.613,1.47,11.235,11.235,0,0,1-3.291.39h-7Zm3.718,3.115v12.2h2.776a10.15,10.15,0,0,0,2.249-.176,3.436,3.436,0,0,0,1.5-.766,3.9,3.9,0,0,0,.973-1.778,11.986,11.986,0,0,0,.377-3.373,10.973,10.973,0,0,0-.377-3.278,4.214,4.214,0,0,0-1.055-1.784,3.541,3.541,0,0,0-1.721-.867,16.868,16.868,0,0,0-3.052-.176Z" fill="#008038"/>
    <path id="패스_313" data-name="패스 313" d="M89.037,1691.816V1673.4h3.718v18.416Z" fill="#008038"/>
  </g>
</svg>
